<svg width="864" height="864" viewBox="0 0 864 864" fill="none" xmlns="http://www.w3.org/2000/svg">
  <g filter="url(#filter0_d_0_1)">
  <rect x="20" y="6" width="824" height="824" rx="190" fill="url(#paint0_linear_0_1)"/>
  </g>
  <g filter="url(#filter1_d_0_1)">
  <path fill-rule="evenodd" clip-rule="evenodd" d="M597.1 129.31H266.62C255.664 129.31 245.157 133.662 237.409 141.409C229.662 149.157 225.31 159.664 225.31 170.62V666.34C225.31 677.296 229.662 687.803 237.409 695.551C245.157 703.298 255.664 707.65 266.62 707.65H597.1C608.056 707.65 618.563 703.298 626.311 695.551C634.058 687.803 638.41 677.296 638.41 666.34V170.62C638.41 159.664 634.058 149.157 626.311 141.409C618.563 133.662 608.056 129.31 597.1 129.31ZM266.62 88C244.708 88 223.693 96.7046 208.199 112.199C192.705 127.693 184 148.708 184 170.62V666.34C184 688.252 192.705 709.267 208.199 724.761C223.693 740.255 244.708 748.96 266.62 748.96H597.1C619.012 748.96 640.027 740.255 655.521 724.761C671.015 709.267 679.72 688.252 679.72 666.34V170.62C679.72 148.708 671.015 127.693 655.521 112.199C640.027 96.7046 619.012 88 597.1 88H266.62Z" stroke="white" stroke-width="10"/>
  <path d="M266.62 191.275C266.62 185.797 268.796 180.543 272.67 176.67C276.543 172.796 281.797 170.62 287.275 170.62H576.445C581.923 170.62 587.177 172.796 591.05 176.67C594.924 180.543 597.1 185.797 597.1 191.275V273.895C597.1 279.373 594.924 284.627 591.05 288.5C587.177 292.374 581.923 294.55 576.445 294.55H287.275C281.797 294.55 276.543 292.374 272.67 288.5C268.796 284.627 266.62 279.373 266.62 273.895V191.275ZM266.62 356.515C266.62 351.037 268.796 345.783 272.67 341.91C276.543 338.036 281.797 335.86 287.275 335.86H328.585C334.063 335.86 339.317 338.036 343.19 341.91C347.064 345.783 349.24 351.037 349.24 356.515V397.825C349.24 403.303 347.064 408.557 343.19 412.43C339.317 416.304 334.063 418.48 328.585 418.48H287.275C281.797 418.48 276.543 416.304 272.67 412.43C268.796 408.557 266.62 403.303 266.62 397.825V356.515ZM266.62 480.445C266.62 474.967 268.796 469.713 272.67 465.84C276.543 461.966 281.797 459.79 287.275 459.79H328.585C334.063 459.79 339.317 461.966 343.19 465.84C347.064 469.713 349.24 474.967 349.24 480.445V521.755C349.24 527.233 347.064 532.487 343.19 536.36C339.317 540.234 334.063 542.41 328.585 542.41H287.275C281.797 542.41 276.543 540.234 272.67 536.36C268.796 532.487 266.62 527.233 266.62 521.755V480.445ZM266.62 604.375C266.62 598.897 268.796 593.643 272.67 589.77C276.543 585.896 281.797 583.72 287.275 583.72H328.585C334.063 583.72 339.317 585.896 343.19 589.77C347.064 593.643 349.24 598.897 349.24 604.375V645.685C349.24 651.163 347.064 656.417 343.19 660.29C339.317 664.164 334.063 666.34 328.585 666.34H287.275C281.797 666.34 276.543 664.164 272.67 660.29C268.796 656.417 266.62 651.163 266.62 645.685V604.375ZM390.55 356.515C390.55 351.037 392.726 345.783 396.6 341.91C400.473 338.036 405.727 335.86 411.205 335.86H452.515C457.993 335.86 463.247 338.036 467.12 341.91C470.994 345.783 473.17 351.037 473.17 356.515V397.825C473.17 403.303 470.994 408.557 467.12 412.43C463.247 416.304 457.993 418.48 452.515 418.48H411.205C405.727 418.48 400.473 416.304 396.6 412.43C392.726 408.557 390.55 403.303 390.55 397.825V356.515ZM390.55 480.445C390.55 474.967 392.726 469.713 396.6 465.84C400.473 461.966 405.727 459.79 411.205 459.79H452.515C457.993 459.79 463.247 461.966 467.12 465.84C470.994 469.713 473.17 474.967 473.17 480.445V521.755C473.17 527.233 470.994 532.487 467.12 536.36C463.247 540.234 457.993 542.41 452.515 542.41H411.205C405.727 542.41 400.473 540.234 396.6 536.36C392.726 532.487 390.55 527.233 390.55 521.755V480.445ZM390.55 604.375C390.55 598.897 392.726 593.643 396.6 589.77C400.473 585.896 405.727 583.72 411.205 583.72H452.515C457.993 583.72 463.247 585.896 467.12 589.77C470.994 593.643 473.17 598.897 473.17 604.375V645.685C473.17 651.163 470.994 656.417 467.12 660.29C463.247 664.164 457.993 666.34 452.515 666.34H411.205C405.727 666.34 400.473 664.164 396.6 660.29C392.726 656.417 390.55 651.163 390.55 645.685V604.375ZM514.48 356.515C514.48 351.037 516.656 345.783 520.53 341.91C524.403 338.036 529.657 335.86 535.135 335.86H576.445C581.923 335.86 587.177 338.036 591.05 341.91C594.924 345.783 597.1 351.037 597.1 356.515V397.825C597.1 403.303 594.924 408.557 591.05 412.43C587.177 416.304 581.923 418.48 576.445 418.48H535.135C529.657 418.48 524.403 416.304 520.53 412.43C516.656 408.557 514.48 403.303 514.48 397.825V356.515ZM514.48 480.445C514.48 474.967 516.656 469.713 520.53 465.84C524.403 461.966 529.657 459.79 535.135 459.79H576.445C581.923 459.79 587.177 461.966 591.05 465.84C594.924 469.713 597.1 474.967 597.1 480.445V645.685C597.1 651.163 594.924 656.417 591.05 660.29C587.177 664.164 581.923 666.34 576.445 666.34H535.135C529.657 666.34 524.403 664.164 520.53 660.29C516.656 656.417 514.48 651.163 514.48 645.685V480.445Z" stroke="white" stroke-width="10"/>
  </g>
  <defs>
  <filter id="filter0_d_0_1" x="0" y="0" width="864" height="864" filterUnits="userSpaceOnUse" color-interpolation-filters="sRGB">
  <feFlood flood-opacity="0" result="BackgroundImageFix"/>
  <feColorMatrix in="SourceAlpha" type="matrix" values="0 0 0 0 0 0 0 0 0 0 0 0 0 0 0 0 0 0 127 0" result="hardAlpha"/>
  <feOffset dy="14"/>
  <feGaussianBlur stdDeviation="10"/>
  <feComposite in2="hardAlpha" operator="out"/>
  <feColorMatrix type="matrix" values="0 0 0 0 0 0 0 0 0 0 0 0 0 0 0 0 0 0 0.25 0"/>
  <feBlend mode="normal" in2="BackgroundImageFix" result="effect1_dropShadow_0_1"/>
  <feBlend mode="normal" in="SourceGraphic" in2="effect1_dropShadow_0_1" result="shape"/>
  </filter>
  <filter id="filter1_d_0_1" x="175" y="83" width="513.72" height="678.96" filterUnits="userSpaceOnUse" color-interpolation-filters="sRGB">
  <feFlood flood-opacity="0" result="BackgroundImageFix"/>
  <feColorMatrix in="SourceAlpha" type="matrix" values="0 0 0 0 0 0 0 0 0 0 0 0 0 0 0 0 0 0 127 0" result="hardAlpha"/>
  <feOffset dy="4"/>
  <feGaussianBlur stdDeviation="2"/>
  <feComposite in2="hardAlpha" operator="out"/>
  <feColorMatrix type="matrix" values="0 0 0 0 0 0 0 0 0 0 0 0 0 0 0 0 0 0 0.25 0"/>
  <feBlend mode="normal" in2="BackgroundImageFix" result="effect1_dropShadow_0_1"/>
  <feBlend mode="normal" in="SourceGraphic" in2="effect1_dropShadow_0_1" result="shape"/>
  </filter>
  <linearGradient id="paint0_linear_0_1" x1="432" y1="6" x2="432" y2="830" gradientUnits="userSpaceOnUse">
  <stop/>
  <stop offset="1" stop-color="#3913B8"/>
  </linearGradient>
  </defs>
  </svg>
  