<svg width="864" height="864" viewBox="0 0 864 864" fill="none" xmlns="http://www.w3.org/2000/svg">
  <g filter="url(#filter0_d_0_1)">
  <rect x="20" y="6" width="824" height="824" rx="190" fill="url(#paint0_linear_0_1)"/>
  </g>
  <g filter="url(#filter1_d_0_1)">
  <path d="M663.59 91.3386L663.592 91.3414C663.838 91.7752 664.292 92.0182 664.768 92.0182C665.001 92.0182 665.232 91.961 665.438 91.8395L665.443 91.8369C666.091 91.4642 666.315 90.6291 665.941 89.9792L657.08 74.6284C656.705 73.9809 655.87 73.7542 655.226 74.1326L655.222 74.1348C654.574 74.5078 654.35 75.3375 654.724 75.9868L663.59 91.3386ZM663.59 91.3386L654.724 75.9874L663.59 91.3386ZM735.793 91.8374L735.793 91.8376C736.007 91.9616 736.235 92.0182 736.472 92.0182C736.94 92.0182 737.396 91.7724 737.644 91.3398L737.645 91.3387L746.505 75.9874C746.88 75.3376 746.661 74.508 746.008 74.1299C745.366 73.7645 744.531 73.9815 744.154 74.6291C744.154 74.6292 744.154 74.6292 744.154 74.6292L735.294 89.9792L735.793 91.8374ZM735.793 91.8374C735.139 91.4598 734.92 90.6299 735.294 89.9797L735.793 91.8374ZM648.419 140.417L648.724 140.343L648.79 140.036C653.895 116.116 675.197 98.1148 700.62 98.1148C719.685 98.1148 737.293 108.382 746.716 124.941L746.822 125.127L747.03 125.179C765.619 129.788 779.44 146.612 779.44 166.602C779.435 190.126 760.29 209.271 736.766 209.271H656.728C637.47 209.271 621.805 193.601 621.805 174.348C621.805 158.282 632.924 144.2 648.419 140.417ZM706.108 140.984L706.107 140.986C705.626 141.564 704.771 141.636 704.194 141.159C703.618 140.674 703.543 139.817 704.023 139.247L704.024 139.246C712.16 129.517 724.093 123.939 736.771 123.939C738.599 123.939 740.401 124.051 742.172 124.276L743.25 124.412L742.652 123.505C733.384 109.428 717.613 100.833 700.62 100.833C672.898 100.833 650.341 123.39 650.341 151.111C650.341 159.93 652.662 168.614 657.049 176.214C657.423 176.865 657.198 177.698 656.553 178.065L656.549 178.067C655.89 178.45 655.068 178.227 654.694 177.571L654.693 177.568C650.069 169.558 647.623 160.412 647.623 151.111C647.623 148.712 647.782 146.353 648.094 144.042L647.599 143.975L647.455 143.496C634.01 147.535 624.523 160.091 624.523 174.348C624.523 192.109 638.967 206.554 656.728 206.554H736.766C758.797 206.554 776.717 188.633 776.717 166.602C776.717 144.571 758.797 126.651 736.766 126.651C724.896 126.651 713.726 131.876 706.108 140.984ZM761.546 117.581L761.546 117.58C761.168 116.931 761.391 116.097 762.043 115.724L762.045 115.723L777.392 106.865C777.393 106.864 777.394 106.864 777.394 106.864C778.052 106.494 778.883 106.715 779.247 107.357L779.25 107.362C779.627 108.011 779.404 108.844 778.752 109.218L778.751 109.218L763.399 118.079L763.395 118.082C763.188 118.203 762.962 118.26 762.724 118.26C762.255 118.26 761.799 118.018 761.546 117.581ZM637.831 118.08L637.831 118.079L622.486 109.224C622.485 109.224 622.485 109.224 622.485 109.224C621.835 108.846 621.613 108.015 621.985 107.367C622.366 106.718 623.188 106.491 623.844 106.868C623.844 106.868 623.844 106.868 623.844 106.868L639.194 115.728C639.194 115.728 639.194 115.728 639.194 115.728C639.845 116.107 640.066 116.937 639.694 117.585C639.442 118.017 638.986 118.26 638.51 118.26C638.278 118.26 638.045 118.203 637.831 118.08ZM700.62 82.4084C699.868 82.4084 699.261 81.8009 699.261 81.0495V63.3275C699.261 62.576 699.868 61.9685 700.62 61.9685C701.371 61.9685 701.979 62.576 701.979 63.3275V81.0546C701.979 81.8 701.372 82.4084 700.62 82.4084Z" stroke="white"/>
  </g>
  <g style="mix-blend-mode:luminosity" filter="url(#filter2_b_0_1)">
  <path d="M307.965 205.982H555.825C562.716 205.983 569.325 208.72 574.197 213.593C579.07 218.465 581.807 225.074 581.807 231.965V603.755C581.807 610.646 579.07 617.255 574.197 622.127C569.325 627 562.716 629.737 555.825 629.737H307.965C301.074 629.737 294.465 627 289.593 622.127C284.72 617.255 281.982 610.646 281.982 603.755V231.965C281.982 225.074 284.72 218.465 289.593 213.593C294.465 208.72 301.074 205.983 307.965 205.982ZM307.965 165C290.205 165 273.172 172.055 260.614 184.614C248.055 197.172 241 214.205 241 231.965V603.755C241 621.515 248.055 638.548 260.614 651.106C273.172 663.665 290.205 670.72 307.965 670.72H555.825C573.585 670.72 590.618 663.665 603.176 651.106C615.735 638.548 622.79 621.515 622.79 603.755V231.965C622.79 214.205 615.735 197.172 603.176 184.614C590.618 172.055 573.585 165 555.825 165H307.965Z" stroke="white" stroke-width="10"/>
  <mask id="path-4-outside-1_0_1" maskUnits="userSpaceOnUse" x="297.965" y="221.965" width="268" height="392" fill="black">
  <rect fill="white" x="297.965" y="221.965" width="268" height="392"/>
  <path d="M307.965 247.456C307.965 243.348 309.597 239.408 312.502 236.502C315.408 233.597 319.348 231.965 323.456 231.965H540.334C544.442 231.965 548.383 233.597 551.288 236.502C554.193 239.408 555.825 243.348 555.825 247.456V309.421C555.825 313.53 554.193 317.47 551.288 320.375C548.383 323.28 544.442 324.913 540.334 324.913H323.456C319.348 324.913 315.408 323.28 312.502 320.375C309.597 317.47 307.965 313.53 307.965 309.421V247.456ZM307.965 371.386C307.965 367.278 309.597 363.338 312.502 360.432C315.408 357.527 319.348 355.895 323.456 355.895H354.439C358.547 355.895 362.488 357.527 365.393 360.432C368.298 363.338 369.93 367.278 369.93 371.386V402.369C369.93 406.477 368.298 410.418 365.393 413.323C362.488 416.228 358.547 417.86 354.439 417.86H323.456C319.348 417.86 315.408 416.228 312.502 413.323C309.597 410.418 307.965 406.477 307.965 402.369V371.386ZM307.965 464.334C307.965 460.225 309.597 456.285 312.502 453.38C315.408 450.475 319.348 448.843 323.456 448.843H354.439C358.547 448.843 362.488 450.475 365.393 453.38C368.298 456.285 369.93 460.225 369.93 464.334V495.316C369.93 499.425 368.298 503.365 365.393 506.27C362.488 509.175 358.547 510.808 354.439 510.808H323.456C319.348 510.808 315.408 509.175 312.502 506.27C309.597 503.365 307.965 499.425 307.965 495.316V464.334ZM307.965 557.281C307.965 553.173 309.597 549.232 312.502 546.327C315.408 543.422 319.348 541.79 323.456 541.79H354.439C358.547 541.79 362.488 543.422 365.393 546.327C368.298 549.232 369.93 553.173 369.93 557.281V588.264C369.93 592.372 368.298 596.313 365.393 599.218C362.488 602.123 358.547 603.755 354.439 603.755H323.456C319.348 603.755 315.408 602.123 312.502 599.218C309.597 596.313 307.965 592.372 307.965 588.264V557.281ZM400.913 371.386C400.913 367.278 402.545 363.338 405.45 360.432C408.355 357.527 412.295 355.895 416.404 355.895H447.386C451.495 355.895 455.435 357.527 458.34 360.432C461.245 363.338 462.878 367.278 462.878 371.386V402.369C462.878 406.477 461.245 410.418 458.34 413.323C455.435 416.228 451.495 417.86 447.386 417.86H416.404C412.295 417.86 408.355 416.228 405.45 413.323C402.545 410.418 400.913 406.477 400.913 402.369V371.386ZM400.913 464.334C400.913 460.225 402.545 456.285 405.45 453.38C408.355 450.475 412.295 448.843 416.404 448.843H447.386C451.495 448.843 455.435 450.475 458.34 453.38C461.245 456.285 462.878 460.225 462.878 464.334V495.316C462.878 499.425 461.245 503.365 458.34 506.27C455.435 509.175 451.495 510.808 447.386 510.808H416.404C412.295 510.808 408.355 509.175 405.45 506.27C402.545 503.365 400.913 499.425 400.913 495.316V464.334ZM400.913 557.281C400.913 553.173 402.545 549.232 405.45 546.327C408.355 543.422 412.295 541.79 416.404 541.79H447.386C451.495 541.79 455.435 543.422 458.34 546.327C461.245 549.232 462.878 553.173 462.878 557.281V588.264C462.878 592.372 461.245 596.313 458.34 599.218C455.435 602.123 451.495 603.755 447.386 603.755H416.404C412.295 603.755 408.355 602.123 405.45 599.218C402.545 596.313 400.913 592.372 400.913 588.264V557.281ZM493.86 371.386C493.86 367.278 495.492 363.338 498.397 360.432C501.303 357.527 505.243 355.895 509.351 355.895H540.334C544.442 355.895 548.383 357.527 551.288 360.432C554.193 363.338 555.825 367.278 555.825 371.386V402.369C555.825 406.477 554.193 410.418 551.288 413.323C548.383 416.228 544.442 417.86 540.334 417.86H509.351C505.243 417.86 501.303 416.228 498.397 413.323C495.492 410.418 493.86 406.477 493.86 402.369V371.386ZM493.86 464.334C493.86 460.225 495.492 456.285 498.397 453.38C501.303 450.475 505.243 448.843 509.351 448.843H540.334C544.442 448.843 548.383 450.475 551.288 453.38C554.193 456.285 555.825 460.225 555.825 464.334V588.264C555.825 592.372 554.193 596.313 551.288 599.218C548.383 602.123 544.442 603.755 540.334 603.755H509.351C505.243 603.755 501.303 602.123 498.397 599.218C495.492 596.313 493.86 592.372 493.86 588.264V464.334Z"/>
  </mask>
  <path d="M307.965 247.456C307.965 243.348 309.597 239.408 312.502 236.502C315.408 233.597 319.348 231.965 323.456 231.965H540.334C544.442 231.965 548.383 233.597 551.288 236.502C554.193 239.408 555.825 243.348 555.825 247.456V309.421C555.825 313.53 554.193 317.47 551.288 320.375C548.383 323.28 544.442 324.913 540.334 324.913H323.456C319.348 324.913 315.408 323.28 312.502 320.375C309.597 317.47 307.965 313.53 307.965 309.421V247.456ZM307.965 371.386C307.965 367.278 309.597 363.338 312.502 360.432C315.408 357.527 319.348 355.895 323.456 355.895H354.439C358.547 355.895 362.488 357.527 365.393 360.432C368.298 363.338 369.93 367.278 369.93 371.386V402.369C369.93 406.477 368.298 410.418 365.393 413.323C362.488 416.228 358.547 417.86 354.439 417.86H323.456C319.348 417.86 315.408 416.228 312.502 413.323C309.597 410.418 307.965 406.477 307.965 402.369V371.386ZM307.965 464.334C307.965 460.225 309.597 456.285 312.502 453.38C315.408 450.475 319.348 448.843 323.456 448.843H354.439C358.547 448.843 362.488 450.475 365.393 453.38C368.298 456.285 369.93 460.225 369.93 464.334V495.316C369.93 499.425 368.298 503.365 365.393 506.27C362.488 509.175 358.547 510.808 354.439 510.808H323.456C319.348 510.808 315.408 509.175 312.502 506.27C309.597 503.365 307.965 499.425 307.965 495.316V464.334ZM307.965 557.281C307.965 553.173 309.597 549.232 312.502 546.327C315.408 543.422 319.348 541.79 323.456 541.79H354.439C358.547 541.79 362.488 543.422 365.393 546.327C368.298 549.232 369.93 553.173 369.93 557.281V588.264C369.93 592.372 368.298 596.313 365.393 599.218C362.488 602.123 358.547 603.755 354.439 603.755H323.456C319.348 603.755 315.408 602.123 312.502 599.218C309.597 596.313 307.965 592.372 307.965 588.264V557.281ZM400.913 371.386C400.913 367.278 402.545 363.338 405.45 360.432C408.355 357.527 412.295 355.895 416.404 355.895H447.386C451.495 355.895 455.435 357.527 458.34 360.432C461.245 363.338 462.878 367.278 462.878 371.386V402.369C462.878 406.477 461.245 410.418 458.34 413.323C455.435 416.228 451.495 417.86 447.386 417.86H416.404C412.295 417.86 408.355 416.228 405.45 413.323C402.545 410.418 400.913 406.477 400.913 402.369V371.386ZM400.913 464.334C400.913 460.225 402.545 456.285 405.45 453.38C408.355 450.475 412.295 448.843 416.404 448.843H447.386C451.495 448.843 455.435 450.475 458.34 453.38C461.245 456.285 462.878 460.225 462.878 464.334V495.316C462.878 499.425 461.245 503.365 458.34 506.27C455.435 509.175 451.495 510.808 447.386 510.808H416.404C412.295 510.808 408.355 509.175 405.45 506.27C402.545 503.365 400.913 499.425 400.913 495.316V464.334ZM400.913 557.281C400.913 553.173 402.545 549.232 405.45 546.327C408.355 543.422 412.295 541.79 416.404 541.79H447.386C451.495 541.79 455.435 543.422 458.34 546.327C461.245 549.232 462.878 553.173 462.878 557.281V588.264C462.878 592.372 461.245 596.313 458.34 599.218C455.435 602.123 451.495 603.755 447.386 603.755H416.404C412.295 603.755 408.355 602.123 405.45 599.218C402.545 596.313 400.913 592.372 400.913 588.264V557.281ZM493.86 371.386C493.86 367.278 495.492 363.338 498.397 360.432C501.303 357.527 505.243 355.895 509.351 355.895H540.334C544.442 355.895 548.383 357.527 551.288 360.432C554.193 363.338 555.825 367.278 555.825 371.386V402.369C555.825 406.477 554.193 410.418 551.288 413.323C548.383 416.228 544.442 417.86 540.334 417.86H509.351C505.243 417.86 501.303 416.228 498.397 413.323C495.492 410.418 493.86 406.477 493.86 402.369V371.386ZM493.86 464.334C493.86 460.225 495.492 456.285 498.397 453.38C501.303 450.475 505.243 448.843 509.351 448.843H540.334C544.442 448.843 548.383 450.475 551.288 453.38C554.193 456.285 555.825 460.225 555.825 464.334V588.264C555.825 592.372 554.193 596.313 551.288 599.218C548.383 602.123 544.442 603.755 540.334 603.755H509.351C505.243 603.755 501.303 602.123 498.397 599.218C495.492 596.313 493.86 592.372 493.86 588.264V464.334Z" stroke="white" stroke-width="20" mask="url(#path-4-outside-1_0_1)"/>
  </g>
  <path d="M141.923 743.54C137.933 743.54 134.828 742.19 132.608 739.49C130.388 736.76 129.278 732.755 129.278 727.475C129.278 722.195 130.388 718.145 132.608 715.325C134.828 712.475 137.933 711.05 141.923 711.05C144.563 711.05 146.768 711.65 148.538 712.85C150.338 714.05 151.733 715.745 152.723 717.935L149.663 719.78C149.033 718.16 148.073 716.87 146.783 715.91C145.493 714.92 143.873 714.425 141.923 714.425C140.573 714.425 139.358 714.68 138.278 715.19C137.228 715.7 136.328 716.435 135.578 717.395C134.858 718.325 134.303 719.45 133.913 720.77C133.523 722.06 133.328 723.515 133.328 725.135V729.815C133.328 733.055 134.078 735.59 135.578 737.42C137.078 739.25 139.193 740.165 141.923 740.165C143.933 740.165 145.613 739.655 146.963 738.635C148.313 737.585 149.303 736.205 149.933 734.495L152.948 736.385C151.958 738.605 150.533 740.36 148.673 741.65C146.813 742.91 144.563 743.54 141.923 743.54ZM157.317 743V739.85H161.727V714.74H157.317V711.59H169.917V714.74H165.507V739.85H169.917V743H157.317ZM176.82 711.59H187.35C189.3 711.59 191.07 711.92 192.66 712.58C194.25 713.24 195.6 714.23 196.71 715.55C197.85 716.84 198.72 718.475 199.32 720.455C199.92 722.405 200.22 724.685 200.22 727.295C200.22 729.905 199.92 732.2 199.32 734.18C198.72 736.13 197.85 737.765 196.71 739.085C195.6 740.375 194.25 741.35 192.66 742.01C191.07 742.67 189.3 743 187.35 743H176.82V711.59ZM187.35 739.67C188.64 739.67 189.825 739.46 190.905 739.04C191.985 738.59 192.915 737.945 193.695 737.105C194.475 736.265 195.075 735.245 195.495 734.045C195.945 732.815 196.17 731.42 196.17 729.86V724.73C196.17 723.17 195.945 721.79 195.495 720.59C195.075 719.36 194.475 718.325 193.695 717.485C192.915 716.645 191.985 716.015 190.905 715.595C189.825 715.145 188.64 714.92 187.35 714.92H180.6V739.67H187.35ZM210.79 743H207.01V711.59H219.52C222.28 711.59 224.425 712.355 225.955 713.885C227.515 715.415 228.295 717.62 228.295 720.5C228.295 722.81 227.755 724.715 226.675 726.215C225.625 727.685 224.065 728.66 221.995 729.14L229.195 743H224.92L218.125 729.5H210.79V743ZM219.52 726.26C221.02 726.26 222.175 725.87 222.985 725.09C223.825 724.31 224.245 723.2 224.245 721.76V719.42C224.245 717.98 223.825 716.87 222.985 716.09C222.175 715.31 221.02 714.92 219.52 714.92H210.79V726.26H219.52ZM257.499 743.54C253.509 743.54 250.404 742.19 248.184 739.49C245.964 736.76 244.854 732.755 244.854 727.475C244.854 722.195 245.964 718.145 248.184 715.325C250.404 712.475 253.509 711.05 257.499 711.05C260.139 711.05 262.344 711.65 264.114 712.85C265.914 714.05 267.309 715.745 268.299 717.935L265.239 719.78C264.609 718.16 263.649 716.87 262.359 715.91C261.069 714.92 259.449 714.425 257.499 714.425C256.149 714.425 254.934 714.68 253.854 715.19C252.804 715.7 251.904 716.435 251.154 717.395C250.434 718.325 249.879 719.45 249.489 720.77C249.099 722.06 248.904 723.515 248.904 725.135V729.815C248.904 733.055 249.654 735.59 251.154 737.42C252.654 739.25 254.769 740.165 257.499 740.165C259.509 740.165 261.189 739.655 262.539 738.635C263.889 737.585 264.879 736.205 265.509 734.495L268.524 736.385C267.534 738.605 266.109 740.36 264.249 741.65C262.389 742.91 260.139 743.54 257.499 743.54ZM290.893 743C289.543 743 288.568 742.64 287.968 741.92C287.398 741.2 287.038 740.3 286.888 739.22H286.663C286.153 740.66 285.313 741.74 284.143 742.46C282.973 743.18 281.578 743.54 279.958 743.54C277.498 743.54 275.578 742.91 274.198 741.65C272.848 740.39 272.173 738.68 272.173 736.52C272.173 734.33 272.968 732.65 274.558 731.48C276.178 730.31 278.683 729.725 282.073 729.725H286.663V727.43C286.663 725.78 286.213 724.52 285.313 723.65C284.413 722.78 283.033 722.345 281.173 722.345C279.763 722.345 278.578 722.66 277.618 723.29C276.688 723.92 275.908 724.76 275.278 725.81L273.118 723.785C273.748 722.525 274.753 721.46 276.133 720.59C277.513 719.69 279.253 719.24 281.353 719.24C284.173 719.24 286.363 719.93 287.923 721.31C289.483 722.69 290.263 724.61 290.263 727.07V739.85H292.918V743H290.893ZM280.543 740.48C281.443 740.48 282.268 740.375 283.018 740.165C283.768 739.955 284.413 739.655 284.953 739.265C285.493 738.875 285.913 738.425 286.213 737.915C286.513 737.405 286.663 736.85 286.663 736.25V732.425H281.893C279.823 732.425 278.308 732.725 277.348 733.325C276.418 733.925 275.953 734.795 275.953 735.935V736.88C275.953 738.02 276.358 738.905 277.168 739.535C278.008 740.165 279.133 740.48 280.543 740.48ZM301.881 743C300.621 743 299.661 742.655 299.001 741.965C298.371 741.245 298.056 740.345 298.056 739.265V709.7H301.656V739.85H305.076V743H301.881ZM318.957 743.54C317.337 743.54 315.882 743.255 314.592 742.685C313.302 742.115 312.207 741.305 311.307 740.255C310.437 739.205 309.762 737.93 309.282 736.43C308.832 734.93 308.607 733.25 308.607 731.39C308.607 729.53 308.832 727.85 309.282 726.35C309.762 724.85 310.437 723.575 311.307 722.525C312.207 721.475 313.302 720.665 314.592 720.095C315.882 719.525 317.337 719.24 318.957 719.24C321.267 719.24 323.112 719.75 324.492 720.77C325.902 721.76 326.952 723.065 327.642 724.685L324.627 726.215C324.207 725.015 323.517 724.085 322.557 723.425C321.597 722.765 320.397 722.435 318.957 722.435C317.877 722.435 316.932 722.615 316.122 722.975C315.312 723.305 314.637 723.785 314.097 724.415C313.557 725.015 313.152 725.75 312.882 726.62C312.612 727.46 312.477 728.39 312.477 729.41V733.37C312.477 735.41 313.017 737.09 314.097 738.41C315.207 739.7 316.827 740.345 318.957 740.345C321.867 740.345 323.967 738.995 325.257 736.295L327.867 738.05C327.117 739.73 325.992 741.065 324.492 742.055C323.022 743.045 321.177 743.54 318.957 743.54ZM347.259 739.22H347.079C346.839 739.76 346.539 740.3 346.179 740.84C345.849 741.35 345.429 741.815 344.919 742.235C344.409 742.625 343.794 742.94 343.074 743.18C342.354 743.42 341.514 743.54 340.554 743.54C338.154 743.54 336.249 742.775 334.839 741.245C333.429 739.685 332.724 737.495 332.724 734.675V719.78H336.324V734.045C336.324 738.215 338.094 740.3 341.634 740.3C342.354 740.3 343.044 740.21 343.704 740.03C344.394 739.85 344.994 739.58 345.504 739.22C346.044 738.86 346.464 738.41 346.764 737.87C347.094 737.3 347.259 736.625 347.259 735.845V719.78H350.859V743H347.259V739.22ZM362.35 743C361.09 743 360.13 742.655 359.47 741.965C358.84 741.245 358.525 740.345 358.525 739.265V709.7H362.125V739.85H365.545V743H362.35ZM387.661 743C386.311 743 385.336 742.64 384.736 741.92C384.166 741.2 383.806 740.3 383.656 739.22H383.431C382.921 740.66 382.081 741.74 380.911 742.46C379.741 743.18 378.346 743.54 376.726 743.54C374.266 743.54 372.346 742.91 370.966 741.65C369.616 740.39 368.941 738.68 368.941 736.52C368.941 734.33 369.736 732.65 371.326 731.48C372.946 730.31 375.451 729.725 378.841 729.725H383.431V727.43C383.431 725.78 382.981 724.52 382.081 723.65C381.181 722.78 379.801 722.345 377.941 722.345C376.531 722.345 375.346 722.66 374.386 723.29C373.456 723.92 372.676 724.76 372.046 725.81L369.886 723.785C370.516 722.525 371.521 721.46 372.901 720.59C374.281 719.69 376.021 719.24 378.121 719.24C380.941 719.24 383.131 719.93 384.691 721.31C386.251 722.69 387.031 724.61 387.031 727.07V739.85H389.686V743H387.661ZM377.311 740.48C378.211 740.48 379.036 740.375 379.786 740.165C380.536 739.955 381.181 739.655 381.721 739.265C382.261 738.875 382.681 738.425 382.981 737.915C383.281 737.405 383.431 736.85 383.431 736.25V732.425H378.661C376.591 732.425 375.076 732.725 374.116 733.325C373.186 733.925 372.721 734.795 372.721 735.935V736.88C372.721 738.02 373.126 738.905 373.936 739.535C374.776 740.165 375.901 740.48 377.311 740.48ZM399.954 743C398.694 743 397.734 742.655 397.074 741.965C396.444 741.245 396.129 740.315 396.129 739.175V722.93H392.304V719.78H394.464C395.244 719.78 395.769 719.63 396.039 719.33C396.339 719 396.489 718.445 396.489 717.665V713.345H399.729V719.78H404.814V722.93H399.729V739.85H404.454V743H399.954ZM419.2 743.54C417.64 743.54 416.215 743.255 414.925 742.685C413.635 742.115 412.525 741.305 411.595 740.255C410.695 739.175 409.99 737.9 409.48 736.43C408.97 734.93 408.715 733.25 408.715 731.39C408.715 729.56 408.97 727.895 409.48 726.395C409.99 724.895 410.695 723.62 411.595 722.57C412.525 721.49 413.635 720.665 414.925 720.095C416.215 719.525 417.64 719.24 419.2 719.24C420.76 719.24 422.17 719.525 423.43 720.095C424.72 720.665 425.83 721.49 426.76 722.57C427.69 723.62 428.41 724.895 428.92 726.395C429.43 727.895 429.685 729.56 429.685 731.39C429.685 733.25 429.43 734.93 428.92 736.43C428.41 737.9 427.69 739.175 426.76 740.255C425.83 741.305 424.72 742.115 423.43 742.685C422.17 743.255 420.76 743.54 419.2 743.54ZM419.2 740.345C421.15 740.345 422.74 739.745 423.97 738.545C425.2 737.345 425.815 735.515 425.815 733.055V729.725C425.815 727.265 425.2 725.435 423.97 724.235C422.74 723.035 421.15 722.435 419.2 722.435C417.25 722.435 415.66 723.035 414.43 724.235C413.2 725.435 412.585 727.265 412.585 729.725V733.055C412.585 735.515 413.2 737.345 414.43 738.545C415.66 739.745 417.25 740.345 419.2 740.345ZM435.605 743V719.78H439.205V724.055H439.43C439.85 722.945 440.6 721.955 441.68 721.085C442.76 720.215 444.245 719.78 446.135 719.78H447.53V723.38H445.415C443.465 723.38 441.935 723.755 440.825 724.505C439.745 725.225 439.205 726.14 439.205 727.25V743H435.605ZM464.023 722.93H460.243V719.78H464.023V715.1C464.023 713.48 464.443 712.175 465.283 711.185C466.123 710.195 467.398 709.7 469.108 709.7H472.618V712.85H467.623V719.78H472.618V722.93H467.623V743H464.023V722.93ZM485.953 743.54C484.393 743.54 482.968 743.255 481.678 742.685C480.388 742.115 479.278 741.305 478.348 740.255C477.448 739.175 476.743 737.9 476.233 736.43C475.723 734.93 475.468 733.25 475.468 731.39C475.468 729.56 475.723 727.895 476.233 726.395C476.743 724.895 477.448 723.62 478.348 722.57C479.278 721.49 480.388 720.665 481.678 720.095C482.968 719.525 484.393 719.24 485.953 719.24C487.513 719.24 488.923 719.525 490.183 720.095C491.473 720.665 492.583 721.49 493.513 722.57C494.443 723.62 495.163 724.895 495.673 726.395C496.183 727.895 496.438 729.56 496.438 731.39C496.438 733.25 496.183 734.93 495.673 736.43C495.163 737.9 494.443 739.175 493.513 740.255C492.583 741.305 491.473 742.115 490.183 742.685C488.923 743.255 487.513 743.54 485.953 743.54ZM485.953 740.345C487.903 740.345 489.493 739.745 490.723 738.545C491.953 737.345 492.568 735.515 492.568 733.055V729.725C492.568 727.265 491.953 725.435 490.723 724.235C489.493 723.035 487.903 722.435 485.953 722.435C484.003 722.435 482.413 723.035 481.183 724.235C479.953 725.435 479.338 727.265 479.338 729.725V733.055C479.338 735.515 479.953 737.345 481.183 738.545C482.413 739.745 484.003 740.345 485.953 740.345ZM502.358 743V719.78H505.958V724.055H506.183C506.603 722.945 507.353 721.955 508.433 721.085C509.513 720.215 510.998 719.78 512.888 719.78H514.283V723.38H512.168C510.218 723.38 508.688 723.755 507.578 724.505C506.498 725.225 505.958 726.14 505.958 727.25V743H502.358ZM528.391 743V739.85H532.801V714.74H528.391V711.59H540.991V714.74H536.581V739.85H540.991V743H528.391ZM547.894 711.59H560.809C563.419 711.59 565.459 712.325 566.929 713.795C568.429 715.265 569.179 717.23 569.179 719.69C569.179 720.86 569.014 721.85 568.684 722.66C568.354 723.47 567.934 724.145 567.424 724.685C566.914 725.195 566.359 725.585 565.759 725.855C565.159 726.095 564.604 726.26 564.094 726.35V726.62C564.664 726.65 565.294 726.8 565.984 727.07C566.704 727.34 567.379 727.775 568.009 728.375C568.639 728.945 569.164 729.695 569.584 730.625C570.034 731.525 570.259 732.62 570.259 733.91C570.259 735.2 570.049 736.4 569.629 737.51C569.239 738.62 568.684 739.58 567.964 740.39C567.244 741.2 566.389 741.845 565.399 742.325C564.409 742.775 563.329 743 562.159 743H547.894V711.59ZM551.674 739.67H560.989C562.609 739.67 563.884 739.265 564.814 738.455C565.744 737.615 566.209 736.4 566.209 734.81V733.28C566.209 731.69 565.744 730.49 564.814 729.68C563.884 728.84 562.609 728.42 560.989 728.42H551.674V739.67ZM551.674 725.18H560.359C561.859 725.18 563.029 724.805 563.869 724.055C564.709 723.305 565.129 722.225 565.129 720.815V719.285C565.129 717.875 564.709 716.795 563.869 716.045C563.029 715.295 561.859 714.92 560.359 714.92H551.674V725.18ZM601.773 716.54H601.548L598.893 721.805L591.378 735.485L583.863 721.805L581.208 716.54H580.983V743H577.293V711.59H582.333L591.333 728.51H591.558L600.603 711.59H605.463V743H601.773V716.54ZM635.517 743.54C631.527 743.54 628.422 742.19 626.202 739.49C623.982 736.76 622.872 732.755 622.872 727.475C622.872 722.195 623.982 718.145 626.202 715.325C628.422 712.475 631.527 711.05 635.517 711.05C638.157 711.05 640.362 711.65 642.132 712.85C643.932 714.05 645.327 715.745 646.317 717.935L643.257 719.78C642.627 718.16 641.667 716.87 640.377 715.91C639.087 714.92 637.467 714.425 635.517 714.425C634.167 714.425 632.952 714.68 631.872 715.19C630.822 715.7 629.922 716.435 629.172 717.395C628.452 718.325 627.897 719.45 627.507 720.77C627.117 722.06 626.922 723.515 626.922 725.135V729.815C626.922 733.055 627.672 735.59 629.172 737.42C630.672 739.25 632.787 740.165 635.517 740.165C637.527 740.165 639.207 739.655 640.557 738.635C641.907 737.585 642.897 736.205 643.527 734.495L646.542 736.385C645.552 738.605 644.127 740.36 642.267 741.65C640.407 742.91 638.157 743.54 635.517 743.54ZM655.861 743C654.601 743 653.641 742.655 652.981 741.965C652.351 741.245 652.036 740.345 652.036 739.265V709.7H655.636V739.85H659.056V743H655.861ZM673.072 743.54C671.512 743.54 670.087 743.255 668.797 742.685C667.507 742.115 666.397 741.305 665.467 740.255C664.567 739.175 663.862 737.9 663.352 736.43C662.842 734.93 662.587 733.25 662.587 731.39C662.587 729.56 662.842 727.895 663.352 726.395C663.862 724.895 664.567 723.62 665.467 722.57C666.397 721.49 667.507 720.665 668.797 720.095C670.087 719.525 671.512 719.24 673.072 719.24C674.632 719.24 676.042 719.525 677.302 720.095C678.592 720.665 679.702 721.49 680.632 722.57C681.562 723.62 682.282 724.895 682.792 726.395C683.302 727.895 683.557 729.56 683.557 731.39C683.557 733.25 683.302 734.93 682.792 736.43C682.282 737.9 681.562 739.175 680.632 740.255C679.702 741.305 678.592 742.115 677.302 742.685C676.042 743.255 674.632 743.54 673.072 743.54ZM673.072 740.345C675.022 740.345 676.612 739.745 677.842 738.545C679.072 737.345 679.687 735.515 679.687 733.055V729.725C679.687 727.265 679.072 725.435 677.842 724.235C676.612 723.035 675.022 722.435 673.072 722.435C671.122 722.435 669.532 723.035 668.302 724.235C667.072 725.435 666.457 727.265 666.457 729.725V733.055C666.457 735.515 667.072 737.345 668.302 738.545C669.532 739.745 671.122 740.345 673.072 740.345ZM703.787 739.22H703.607C703.367 739.76 703.067 740.3 702.707 740.84C702.377 741.35 701.957 741.815 701.447 742.235C700.937 742.625 700.322 742.94 699.602 743.18C698.882 743.42 698.042 743.54 697.082 743.54C694.682 743.54 692.777 742.775 691.367 741.245C689.957 739.685 689.252 737.495 689.252 734.675V719.78H692.852V734.045C692.852 738.215 694.622 740.3 698.162 740.3C698.882 740.3 699.572 740.21 700.232 740.03C700.922 739.85 701.522 739.58 702.032 739.22C702.572 738.86 702.992 738.41 703.292 737.87C703.622 737.3 703.787 736.625 703.787 735.845V719.78H707.387V743H703.787V739.22ZM729.904 739.22H729.724C728.314 742.1 726.049 743.54 722.929 743.54C721.489 743.54 720.184 743.255 719.014 742.685C717.844 742.115 716.839 741.305 715.999 740.255C715.189 739.205 714.559 737.93 714.109 736.43C713.689 734.93 713.479 733.25 713.479 731.39C713.479 729.53 713.689 727.85 714.109 726.35C714.559 724.85 715.189 723.575 715.999 722.525C716.839 721.475 717.844 720.665 719.014 720.095C720.184 719.525 721.489 719.24 722.929 719.24C724.549 719.24 725.929 719.6 727.069 720.32C728.239 721.01 729.124 722.09 729.724 723.56H729.904V709.7H733.504V743H729.904V739.22ZM723.919 740.3C724.729 740.3 725.494 740.195 726.214 739.985C726.964 739.775 727.609 739.475 728.149 739.085C728.689 738.665 729.109 738.17 729.409 737.6C729.739 737 729.904 736.325 729.904 735.575V726.935C729.904 726.305 729.739 725.72 729.409 725.18C729.109 724.61 728.689 724.13 728.149 723.74C727.609 723.35 726.964 723.05 726.214 722.84C725.494 722.6 724.729 722.48 723.919 722.48C721.879 722.48 720.274 723.125 719.104 724.415C717.934 725.675 717.349 727.34 717.349 729.41V733.37C717.349 735.44 717.934 737.12 719.104 738.41C720.274 739.67 721.879 740.3 723.919 740.3Z" fill="white"/>
  <defs>
  <filter id="filter0_d_0_1" x="0" y="0" width="864" height="864" filterUnits="userSpaceOnUse" color-interpolation-filters="sRGB">
  <feFlood flood-opacity="0" result="BackgroundImageFix"/>
  <feColorMatrix in="SourceAlpha" type="matrix" values="0 0 0 0 0 0 0 0 0 0 0 0 0 0 0 0 0 0 127 0" result="hardAlpha"/>
  <feOffset dy="14"/>
  <feGaussianBlur stdDeviation="10"/>
  <feComposite in2="hardAlpha" operator="out"/>
  <feColorMatrix type="matrix" values="0 0 0 0 0 0 0 0 0 0 0 0 0 0 0 0 0 0 0.25 0"/>
  <feBlend mode="normal" in2="BackgroundImageFix" result="effect1_dropShadow_0_1"/>
  <feBlend mode="normal" in="SourceGraphic" in2="effect1_dropShadow_0_1" result="shape"/>
  </filter>
  <filter id="filter1_d_0_1" x="617.305" y="61.4685" width="166.636" height="156.303" filterUnits="userSpaceOnUse" color-interpolation-filters="sRGB">
  <feFlood flood-opacity="0" result="BackgroundImageFix"/>
  <feColorMatrix in="SourceAlpha" type="matrix" values="0 0 0 0 0 0 0 0 0 0 0 0 0 0 0 0 0 0 127 0" result="hardAlpha"/>
  <feOffset dy="4"/>
  <feGaussianBlur stdDeviation="2"/>
  <feComposite in2="hardAlpha" operator="out"/>
  <feColorMatrix type="matrix" values="0 0 0 0 0 0 0 0 0 0 0 0 0 0 0 0 0 0 0.25 0"/>
  <feBlend mode="normal" in2="BackgroundImageFix" result="effect1_dropShadow_0_1"/>
  <feBlend mode="normal" in="SourceGraphic" in2="effect1_dropShadow_0_1" result="shape"/>
  </filter>
  <filter id="filter2_b_0_1" x="232" y="156" width="399.79" height="523.72" filterUnits="userSpaceOnUse" color-interpolation-filters="sRGB">
  <feFlood flood-opacity="0" result="BackgroundImageFix"/>
  <feGaussianBlur in="BackgroundImage" stdDeviation="2"/>
  <feComposite in2="SourceAlpha" operator="in" result="effect1_backgroundBlur_0_1"/>
  <feBlend mode="normal" in="SourceGraphic" in2="effect1_backgroundBlur_0_1" result="shape"/>
  </filter>
  <linearGradient id="paint0_linear_0_1" x1="432" y1="6" x2="432" y2="830" gradientUnits="userSpaceOnUse">
  <stop/>
  <stop offset="1" stop-color="#3498FF"/>
  </linearGradient>
  </defs>
  </svg>
  